<svg width="518" height="546" viewBox="0 0 518 546" fill="none" xmlns="http://www.w3.org/2000/svg">
<g clip-path="url(#clip0)">
<path d="M30.0738 499.171C35.1259 516.698 49.8774 528.966 65.2651 539.388C67.4137 540.844 69.5629 542.266 71.7128 543.654C71.7274 543.661 71.7424 543.674 71.7571 543.681C71.8605 543.747 71.9642 543.814 72.0605 543.881C72.5042 544.167 72.9481 544.453 73.3882 544.736L73.1464 544.844C73.1464 544.844 72.9091 544.97 73.1688 544.865C73.2461 544.832 73.327 544.803 73.4042 544.771C82.3434 541.165 91.4415 537.294 98.2921 530.54C105.399 523.527 109.552 512.526 105.704 503.312C105.198 502.105 104.559 500.959 103.799 499.893C103.487 499.447 103.15 499.019 102.8 498.6C100.678 496.009 97.9034 494.03 94.7626 492.867C91.6218 491.704 88.228 491.399 84.93 491.983C81.632 492.566 78.549 494.017 75.9979 496.187C73.4468 498.357 71.5197 501.168 70.4148 504.329C69.2843 493.804 77.9636 484.987 86.3161 478.481C94.6724 471.979 104.167 464.898 105.783 454.43C106.685 448.607 104.66 442.963 100.971 438.432C100.856 438.294 100.742 438.157 100.625 438.023C96.1339 432.746 89.8177 429.357 82.9376 428.534C70.1244 427.202 57.6783 433.985 48.3698 442.894C33.3878 457.227 24.3305 479.244 30.0738 499.171Z" fill="#F2F2F2"/>
<path d="M54.1576 476.247C51.6985 480.073 49.8105 484.237 48.5532 488.608C47.4899 492.515 47.0167 496.558 47.1492 500.605C47.4922 508.932 49.8298 517.054 53.9654 524.289C57.0806 529.778 60.8772 534.852 65.2647 539.389C67.4133 540.844 69.5625 542.266 71.7124 543.655C71.727 543.661 71.742 543.675 71.7567 543.681C71.8602 543.748 71.9638 543.814 72.0602 543.881C72.5039 544.167 72.9478 544.453 73.3878 544.736C73.3878 544.736 72.9087 544.971 73.1684 544.865C73.2457 544.832 73.3267 544.803 73.4038 544.771C72.6026 538.202 73.3875 531.537 75.6927 525.334C77.9979 519.131 81.7562 513.571 86.6528 509.12C91.5611 504.737 97.436 501.575 103.798 499.894C103.486 499.447 103.15 499.019 102.8 498.6C100.343 499.289 97.9512 500.194 95.6534 501.304C87.4393 505.249 80.7135 511.733 76.4716 519.798C72.665 527.121 71.0267 535.378 71.7491 543.599C71.3818 543.266 71.0141 542.926 70.6574 542.589C63.8645 536.256 57.8311 528.987 53.7478 520.597C50.2053 513.493 48.4643 505.626 48.678 497.69C49.0112 489.037 52.459 481.022 57.4509 474.044C62.9221 466.6 69.3854 459.938 76.6614 454.245C83.994 448.372 92.0177 443.419 100.554 439.495C100.746 439.405 100.897 439.245 100.974 439.047C101.052 438.849 101.05 438.629 100.97 438.432C100.913 438.256 100.789 438.109 100.624 438.023C100.54 437.987 100.448 437.97 100.356 437.974C100.263 437.978 100.173 438.002 100.092 438.046C99.038 438.531 97.9915 439.023 96.9533 439.536C88.3061 443.81 80.2234 449.142 72.8908 455.409C65.808 461.447 59.14 468.346 54.1576 476.247Z" fill="white"/>
<path d="M202.626 231.998C217.071 224.102 222.172 205.611 214.019 190.697C205.867 175.783 187.548 170.094 173.103 177.991C158.659 185.887 153.558 204.378 161.71 219.292C169.863 234.205 188.182 239.894 202.626 231.998Z" fill="#2F2E41"/>
<path d="M187.865 237.462C201.43 237.462 212.426 226.466 212.426 212.901C212.426 199.336 201.43 188.34 187.865 188.34C174.301 188.34 163.304 199.336 163.304 212.901C163.304 226.466 174.301 237.462 187.865 237.462Z" fill="#FFB8B8"/>
<path d="M174.696 250.47L171.537 259.404L176.183 286.293L195.329 302.201L210.533 278.691L203.213 256.447L197.722 250.253C197.776 249.696 197.714 249.134 197.541 248.602C197.367 248.071 197.086 247.58 196.714 247.163C196.342 246.745 195.887 246.408 195.379 246.175C194.871 245.941 194.32 245.814 193.761 245.803L181.77 245.57C180.226 245.54 178.711 245.997 177.441 246.876C176.171 247.756 175.21 249.013 174.696 250.47V250.47Z" fill="#CCCCCC"/>
<path d="M225.576 533.697L237.836 533.695L239.529 486.407L225.572 486.409L225.576 533.697Z" fill="#FFB8B8"/>
<path d="M261.481 545.078L222.95 545.081L222.949 530.194L246.593 530.192C250.541 530.192 254.328 531.76 257.12 534.551C259.912 537.343 261.481 541.129 261.481 545.078V545.078L261.481 545.078Z" fill="#2F2E41"/>
<path d="M139.693 533.697L151.953 533.695L157.783 486.407L139.689 486.409L139.693 533.697Z" fill="#FFB8B8"/>
<path d="M175.598 545.078L137.067 545.081L137.066 530.194L160.709 530.192C164.658 530.192 168.444 531.76 171.236 534.551C174.029 537.343 175.597 541.129 175.598 545.078L175.598 545.078Z" fill="#2F2E41"/>
<path d="M247.489 201.607C248.747 202.368 249.823 203.395 250.641 204.617C251.458 205.838 251.998 207.224 252.223 208.677C252.447 210.13 252.35 211.614 251.938 213.026C251.527 214.437 250.811 215.741 249.841 216.846L259.981 237.467L248.953 246.685L235.042 217.363C233.294 215.611 232.25 213.278 232.107 210.807C231.964 208.336 232.733 205.899 234.267 203.956C235.801 202.014 237.995 200.702 240.432 200.269C242.869 199.836 245.38 200.312 247.489 201.607H247.489Z" fill="#FFB8B8"/>
<path d="M174.393 363.08C168.416 363.002 162.45 362.562 156.526 361.762C155.513 361.634 154.538 361.29 153.669 360.754C152.8 360.218 152.055 359.501 151.486 358.653C150.917 357.804 150.537 356.844 150.371 355.836C150.205 354.828 150.257 353.796 150.524 352.81L163.795 303.669L153.107 273.685C151.956 270.446 152.085 266.891 153.468 263.744C154.851 260.598 157.384 258.099 160.549 256.759L175.229 250.552L179.641 277.865L190.154 291.12C190.503 291.56 190.955 291.907 191.47 292.131C191.985 292.354 192.548 292.448 193.107 292.402C193.667 292.357 194.207 292.174 194.68 291.871C195.152 291.567 195.543 291.151 195.816 290.661L203.799 276.352L197.279 250.06L207 251.21C210.139 251.592 213.107 252.847 215.566 254.834C218.026 256.82 219.878 259.457 220.912 262.445C223.9 271.133 224.16 280.527 221.659 289.368L217.63 303.68L224.704 349.401C224.897 350.647 224.836 351.919 224.523 353.141C224.211 354.362 223.653 355.507 222.885 356.507C222.116 357.506 221.153 358.34 220.053 358.956C218.953 359.572 217.74 359.959 216.486 360.092C211.966 360.613 207.414 360.803 202.867 360.662C198.74 360.486 195.842 357.97 194.485 353.385C194.411 353.116 194.251 352.879 194.031 352.71C193.81 352.541 193.539 352.449 193.261 352.447C192.983 352.446 192.712 352.535 192.489 352.702C192.266 352.869 192.105 353.104 192.028 353.372C191.652 354.704 191.239 356.186 190.789 357.82C189.696 361.787 182.851 363.08 174.393 363.08Z" fill="#2F2E41"/>
<path d="M217.049 274.38C215.83 274.383 214.623 274.144 213.497 273.678C212.175 273.13 211.007 272.265 210.097 271.16C209.187 270.055 208.563 268.743 208.279 267.34C207.85 265.115 208.148 262.81 209.129 260.767C210.11 258.724 211.722 257.05 213.727 255.993L242.373 240.439L240.806 234.244C240.59 233.294 240.656 232.301 240.999 231.388C241.341 230.476 241.943 229.684 242.731 229.111L250.118 223.623C250.679 223.193 251.33 222.893 252.022 222.747C252.714 222.601 253.43 222.612 254.118 222.779C254.724 222.931 255.288 223.217 255.769 223.615C256.25 224.014 256.635 224.516 256.897 225.083L260.735 233.368C263.771 239.924 261.175 247.997 254.696 252.148L222.567 272.73C220.923 273.795 219.008 274.368 217.049 274.38V274.38Z" fill="#2F2E41"/>
<path d="M156.695 511.714C156.596 511.714 156.495 511.711 156.395 511.705L140.786 511.078C140.18 511.04 139.589 510.88 139.047 510.608C138.505 510.336 138.023 509.957 137.631 509.494C137.239 509.031 136.945 508.493 136.766 507.914C136.587 507.334 136.527 506.724 136.59 506.121L152.432 353.71L194.008 338.591L218.492 352.446L245.277 500.126C245.487 501.256 245.257 502.424 244.634 503.39C244.011 504.356 243.042 505.047 241.925 505.321L241.861 505.337L225.882 504.944C224.781 505.193 223.626 505.021 222.646 504.46C221.666 503.9 220.931 502.992 220.587 501.917L186.558 382.503C186.456 382.192 186.254 381.922 185.984 381.736C185.714 381.549 185.391 381.457 185.063 381.472C184.735 381.487 184.422 381.609 184.17 381.82C183.919 382.03 183.743 382.317 183.67 382.637L161.08 508.19C160.86 509.19 160.306 510.084 159.508 510.725C158.711 511.366 157.718 511.715 156.695 511.714V511.714Z" fill="#2F2E41"/>
<path d="M166.414 197.395C162.506 202.511 165.48 211.217 171.7 212.874C177.92 214.531 184.83 208.456 183.985 202.075C182.642 208.77 188.372 215.776 195.174 216.371C201.976 216.966 208.59 211.637 210.078 204.973C211.566 198.31 208.245 191.029 202.591 187.201C196.937 183.372 189.366 182.875 182.968 185.262C176.438 187.704 170.709 191.903 166.414 197.395V197.395Z" fill="#2F2E41"/>
<path d="M196.021 175.562C192.383 167.927 188.645 160.146 182.765 154.067C176.884 147.988 168.378 143.801 160.043 145.235C151.708 146.668 144.53 155.081 146.376 163.334C147.314 167.526 143.724 171.681 139.586 172.835C135.448 173.99 131.038 172.91 126.948 171.598C122.857 170.285 118.713 168.718 114.421 168.903C105.815 169.274 98.6197 177.42 98.3173 186.029C98.015 194.637 103.871 202.832 111.728 206.364C119.585 209.895 128.983 209.104 136.733 205.343C144.483 201.582 150.679 195.098 155.21 187.772C161.906 176.947 178.732 174.276 188.45 182.497C189.49 183.314 190.801 183.709 192.119 183.603C193.438 183.498 194.669 182.899 195.566 181.927C197.285 179.921 197.036 176.538 196.021 175.562Z" fill="#2F2E41"/>
<path d="M379.551 132.654L371.358 125.262C342.261 98.548 323.051 81.209 323.051 59.61C323.051 41.9879 336.611 28.3462 354.126 28.3462C358.977 28.372 363.763 29.4532 368.154 31.5146C372.544 33.576 376.433 36.5683 379.551 40.2837C382.669 36.5683 386.558 33.5759 390.949 31.5145C395.339 29.4531 400.126 28.3719 404.976 28.3462C422.492 28.3462 436.051 41.988 436.051 59.61C436.051 81.2093 416.842 98.5483 387.745 125.262L379.551 132.654Z" fill="#E5A5BA"/>
<path d="M244.663 183.485C243.895 183.218 243.23 182.717 242.762 182.052C242.294 181.388 242.045 180.593 242.051 179.78V9C242.054 6.61389 243.003 4.32629 244.69 2.63905C246.378 0.951817 248.665 0.00272874 251.051 0H508.051C510.438 0.00272874 512.725 0.951817 514.412 2.63905C516.1 4.32629 517.049 6.61389 517.051 9V153C517.049 155.386 516.1 157.674 514.412 159.361C512.725 161.048 510.438 161.997 508.051 162H265.616L249.03 182.272C248.666 182.724 248.206 183.088 247.683 183.339C247.16 183.589 246.587 183.72 246.007 183.721C245.549 183.72 245.094 183.64 244.663 183.485V183.485ZM251.051 2C249.196 2.00208 247.416 2.74025 246.104 4.05255C244.792 5.36485 244.053 7.14412 244.051 9V179.78C244.051 180.179 244.175 180.568 244.405 180.895C244.634 181.221 244.96 181.468 245.335 181.602C245.711 181.736 246.119 181.751 246.503 181.644C246.888 181.537 247.23 181.314 247.483 181.005L264.668 160H508.051C509.907 159.998 511.687 159.26 512.999 157.947C514.311 156.635 515.049 154.856 515.051 153V9C515.049 7.14412 514.311 5.36485 512.999 4.05255C511.687 2.74025 509.907 2.00208 508.051 2H251.051Z" fill="#3F3D56"/>
<path d="M168.878 339.354L167.142 335.317C161.052 320.813 156.982 311.346 160.572 303.529C161.875 300.557 164.305 298.224 167.327 297.043C170.35 295.862 173.718 295.93 176.691 297.233C176.799 297.28 176.907 297.33 177.014 297.38C178.765 298.196 180.317 299.382 181.564 300.858C182.81 302.334 183.72 304.063 184.231 305.926C185.977 305.1 187.881 304.663 189.813 304.647C191.744 304.631 193.656 305.035 195.416 305.832C196.884 306.486 198.208 307.422 199.314 308.588C200.42 309.754 201.286 311.126 201.861 312.626C202.437 314.127 202.711 315.726 202.669 317.332C202.627 318.938 202.268 320.521 201.614 321.989C201.566 322.097 201.516 322.204 201.465 322.311C197.875 330.127 188.042 333.209 173.072 338.04L168.878 339.354Z" fill="#E5A5BA"/>
<path d="M175.571 319.524C175.103 318.13 174.336 316.856 173.322 315.791C172.309 314.726 171.074 313.896 169.705 313.36C168.336 312.824 166.867 312.594 165.4 312.688C163.933 312.781 162.504 313.195 161.214 313.9L143.24 300.398L138.901 312.749L157.476 328.229C158.805 330.317 160.853 331.846 163.233 332.525C165.613 333.204 168.16 332.986 170.39 331.913C172.62 330.84 174.38 328.986 175.335 326.703C176.29 324.419 176.374 321.865 175.571 319.524H175.571Z" fill="#FFB8B8"/>
<path d="M149.799 323.783C149.007 323.782 148.232 323.557 147.563 323.134L139.844 318.255C133.737 314.396 131.537 306.205 134.728 299.203L150.552 264.482C151.187 263.027 152.164 261.747 153.401 260.751C154.639 259.756 156.098 259.074 157.656 258.766C159.064 258.508 160.514 258.601 161.878 259.035C163.242 259.47 164.479 260.233 165.478 261.258C167.046 262.895 168.045 264.993 168.33 267.241C168.614 269.49 168.168 271.77 167.058 273.746L151.432 302.353L156.109 306.707C156.807 307.388 157.289 308.258 157.497 309.21C157.705 310.162 157.628 311.155 157.277 312.064L154.049 320.681C153.811 321.347 153.427 321.951 152.925 322.45C152.423 322.948 151.816 323.328 151.148 323.561C150.713 323.707 150.258 323.782 149.799 323.783V323.783Z" fill="#2F2E41"/>
<path d="M315 546H1C0.734784 546 0.480444 545.895 0.292908 545.707C0.105371 545.52 0 545.265 0 545C0 544.735 0.105371 544.48 0.292908 544.293C0.480444 544.105 0.734784 544 1 544H315C315.265 544 315.52 544.105 315.707 544.293C315.895 544.48 316 544.735 316 545C316 545.265 315.895 545.52 315.707 545.707C315.52 545.895 315.265 546 315 546Z" fill="#CCCCCC"/>
</g>
<defs>
<clipPath id="clip0">
<rect width="517.051" height="546" fill="white"/>
</clipPath>
</defs>
</svg>
